<?xml version="1.0" standalone="no"?>
<!DOCTYPE svg PUBLIC "-//W3C//DTD SVG 20010904//EN"
 "http://www.w3.org/TR/2001/REC-SVG-20010904/DTD/svg10.dtd">
<svg version="1.0" xmlns="http://www.w3.org/2000/svg"
 width="472.000000pt" height="99.000000pt" viewBox="0 0 472.000000 99.000000"
 preserveAspectRatio="xMidYMid meet">

<g transform="translate(0.000000,99.000000) scale(0.100000,-0.100000)"
fill="#000000" stroke="none">
<path d="M4507 961 c7 -32 13 -40 13 -18 0 8 2 22 5 30 4 8 0 14 -9 14 -12 0
-14 -7 -9 -26z"/>
<path d="M4548 984 c-5 -4 -8 -19 -8 -33 1 -23 2 -24 11 -8 11 19 9 53 -3 41z"/>
<path d="M4572 959 c-7 -12 -11 -24 -7 -27 3 -4 10 0 14 7 7 11 10 11 14 0 3
-8 6 -2 6 14 1 32 -9 35 -27 6z"/>
<path d="M3120 843 c0 -22 3 -23 69 -23 58 0 70 3 74 18 4 16 5 16 6 0 1 -11
9 -18 21 -18 15 0 20 7 20 25 0 21 -5 25 -29 25 -23 0 -31 -5 -34 -22 l-4 -23
-2 23 c-1 22 -5 23 -61 21 -56 -2 -60 -4 -60 -26z"/>
<path d="M2688 810 c-88 -26 -118 -85 -125 -250 -7 -143 9 -249 43 -290 52
-61 199 -80 262 -33 68 51 82 97 82 278 0 195 -16 240 -100 283 -46 23 -110
28 -162 12z m106 -122 c13 -18 16 -53 16 -179 0 -141 -2 -158 -19 -173 -11
-10 -30 -16 -42 -14 -42 6 -50 40 -47 206 3 139 5 155 22 168 28 20 53 17 70
-8z"/>
<path d="M587 803 l-28 -4 3 -242 c3 -232 4 -244 26 -279 32 -51 91 -73 177
-65 76 7 109 26 136 78 17 35 19 60 19 274 l0 235 -65 0 -65 0 0 -214 c0 -118
-4 -226 -10 -240 -6 -18 -17 -26 -34 -26 -47 0 -50 17 -54 256 l-4 224 -23 0
c-13 0 -29 2 -37 3 -7 2 -26 2 -41 0z"/>
<path d="M1300 800 l-64 -5 -27 -85 c-15 -47 -29 -78 -32 -70 -3 8 -15 48 -27
88 l-21 72 -74 0 -73 0 61 -147 61 -148 5 -140 6 -140 68 -3 67 -3 0 122 0
121 66 165 c36 91 62 168 57 172 -4 3 -37 4 -73 1z"/>
<path d="M1698 802 l-48 -3 0 -290 0 -289 70 0 70 0 0 115 0 115 56 0 c69 0
112 19 143 66 52 75 33 216 -35 260 -28 19 -159 32 -256 26z m160 -118 c16
-11 22 -25 22 -53 0 -47 -16 -69 -57 -77 l-33 -6 0 76 c0 72 1 76 23 76 12 0
33 -7 45 -16z"/>
<path d="M3477 802 c-16 -3 -17 -28 -15 -290 l3 -287 158 -3 157 -3 0 61 0 60
-90 0 -90 0 0 65 0 64 83 3 82 3 0 55 0 55 -82 3 -83 3 0 49 0 50 90 0 90 0 0
55 c0 46 -3 55 -17 55 -214 4 -272 4 -286 2z"/>
<path d="M4129 799 c-5 -3 -8 -126 -7 -290 l3 -284 60 0 60 0 -2 135 c-2 74
-5 151 -9 170 -12 73 14 10 61 -148 l49 -163 71 3 70 3 0 289 0 290 -60 -3
c-33 -1 -61 -4 -63 -6 -2 -1 0 -73 5 -158 4 -85 5 -154 2 -152 -3 2 -27 73
-54 159 l-48 154 -65 4 c-35 2 -68 0 -73 -3z"/>
<path d="M92 513 l3 -288 85 -3 c174 -7 243 20 271 106 25 76 5 167 -41 192
-20 11 -20 11 5 44 53 69 39 175 -27 216 -29 17 -50 20 -166 20 l-132 0 2
-287z m201 185 c9 -7 20 -27 23 -44 7 -38 -22 -74 -61 -74 -24 0 -25 2 -25 65
0 61 1 65 23 65 13 0 31 -6 40 -12z m20 -250 c23 -27 22 -59 -4 -92 -14 -17
-30 -26 -50 -26 l-29 0 0 76 0 76 33 -7 c17 -4 40 -16 50 -27z"/>
<path d="M2110 510 l0 -290 65 0 64 0 3 118 3 117 30 -2 c44 -3 55 -26 55
-112 0 -122 -1 -121 87 -121 68 0 74 2 68 18 -4 9 -11 58 -16 109 -8 91 -26
147 -51 156 -9 3 -7 11 8 28 35 39 44 65 44 121 0 65 -15 95 -59 125 -31 21
-45 23 -167 23 l-134 0 0 -290z m208 177 c6 -5 12 -29 12 -53 0 -47 -24 -74
-67 -74 -22 0 -23 4 -23 68 0 38 2 71 5 74 8 7 58 -3 73 -15z"/>
<path d="M3880 510 l0 -290 65 0 65 0 0 290 0 290 -65 0 -65 0 0 -290z"/>
<path d="M3103 782 c-27 -3 -33 -8 -33 -27 0 -21 5 -24 43 -27 l42 -3 1 -232
c2 -245 2 -243 -41 -233 -5 1 -16 3 -22 3 -7 0 -13 5 -13 10 0 5 8 6 18 2 30
-11 36 -10 40 8 3 14 -3 17 -32 17 -33 0 -36 -2 -36 -30 l0 -30 145 0 145 0 0
30 c0 17 -4 30 -10 30 -5 0 -10 -9 -10 -19 0 -11 -4 -22 -9 -25 -4 -3 -6 6 -3
20 4 23 2 25 -24 22 -21 -2 -28 -8 -26 -20 2 -11 -3 -18 -13 -18 -9 0 -13 4
-10 10 3 6 1 10 -4 10 -6 0 -11 5 -11 11 0 6 6 9 14 6 12 -5 15 27 15 211 0
165 -3 218 -12 222 -9 4 -8 10 6 23 17 17 18 17 15 0 -2 -15 5 -19 40 -21 42
-3 43 -2 40 24 l-3 27 -110 1 c-60 0 -125 0 -142 -2z m-6 -34 c-3 -8 -6 -5 -6
6 -1 11 2 17 5 13 3 -3 4 -12 1 -19z m66 10 c-2 -5 -15 -8 -29 -8 -14 0 -23 3
-21 8 3 4 16 7 30 7 14 0 23 -3 20 -7z m92 2 c3 -5 1 -10 -4 -10 -6 0 -11 5
-11 10 0 6 2 10 4 10 3 0 8 -4 11 -10z m85 -3 c0 -8 -7 -14 -15 -14 -11 0 -12
4 -4 14 6 7 13 13 15 13 2 0 4 -6 4 -13z m-120 -22 c-7 -8 -20 -15 -29 -15
-11 1 -8 5 9 15 32 18 35 18 20 0z m-16 -42 c2 -10 1 -36 -4 -58 l-8 -40 -1
35 c-1 19 -4 45 -7 58 -4 12 -2 22 4 22 6 0 13 -8 16 -17z m-7 -185 c-3 -8 -6
-5 -6 6 -1 11 2 17 5 13 3 -3 4 -12 1 -19z m0 -100 c-3 -8 -6 -5 -6 6 -1 11 2
17 5 13 3 -3 4 -12 1 -19z m50 -40 c-2 -13 -4 -3 -4 22 0 25 2 35 4 23 2 -13
2 -33 0 -45z m-30 5 c-3 -10 -5 -2 -5 17 0 19 2 27 5 18 2 -10 2 -26 0 -35z
m-7 -45 c0 -5 -7 -8 -15 -8 -15 0 -20 21 -8 33 7 7 23 -11 23 -25z"/>
<path d="M3123 185 c0 -25 0 -25 93 -25 94 0 94 0 94 25 0 25 0 25 -94 25 -93
0 -93 0 -93 -25z"/>
</g>
</svg>
